<svg width="89" height="89" viewBox="0 0 89 89" fill="none" xmlns="http://www.w3.org/2000/svg">
<rect width="89" height="89" rx="44.5" fill="#0085FF"/>
<path d="M62.465 27.5357C62.3016 27.3721 62.094 27.2598 61.8676 27.2126C61.6413 27.1653 61.4061 27.1852 61.1908 27.2697L27.9408 40.3322C27.736 40.4126 27.5576 40.5484 27.4255 40.7243C27.2934 40.9002 27.2127 41.1094 27.1925 41.3285C27.1723 41.5476 27.2134 41.7679 27.3111 41.965C27.4089 42.1622 27.5595 42.3282 27.7461 42.4448L37.2461 48.3823C37.4185 48.4901 37.6157 48.5519 37.8189 48.5617C38.022 48.5715 38.2243 48.5289 38.4063 48.4381L44.7202 45.2805L41.5626 51.5944C41.4718 51.7764 41.4292 51.9787 41.439 52.1818C41.4488 52.385 41.5106 52.5822 41.6185 52.7546L47.556 62.2546C47.6627 62.4254 47.8111 62.5663 47.9873 62.6639C48.1635 62.7615 48.3615 62.8128 48.563 62.8128H48.6722C48.8914 62.7925 49.1007 62.7117 49.2766 62.5794C49.4525 62.447 49.5882 62.2684 49.6685 62.0634L62.731 28.8134C62.8163 28.5978 62.8366 28.3618 62.7893 28.1347C62.742 27.9077 62.6293 27.6994 62.465 27.5357Z" fill="white"/>
</svg>
